<svg width="125" height="25" viewBox="0 0 125 25" fill="none" xmlns="http://www.w3.org/2000/svg">
<path d="M12.3307 22.0803C10.7277 22.8414 8.9362 23.2702 7.04589 23.2702C6.02889 23.2702 5.04108 23.1467 4.09592 22.9132C3.72549 21.9411 3.52344 20.8882 3.52344 19.7904C3.52344 19.5367 3.53466 19.2875 3.55711 19.0405C4.62799 19.5052 5.80888 19.7634 7.04813 19.7634C7.65654 19.7634 8.25147 19.7028 8.8262 19.5838C9.82973 20.6053 11.0173 21.4562 12.3307 22.0803Z" fill="#FFCD15"/>
<path d="M18.9856 14.0274C18.4356 16.1535 17.331 18.0595 15.8358 19.5816C14.5405 19.3167 13.3506 18.7644 12.3291 17.9966C14.2778 16.5306 15.6024 14.2721 15.8201 11.7061C17.0414 12.2336 18.1213 13.0329 18.9856 14.0274Z" fill="#4A5CFF"/>
<path d="M15.2771 7.83118C14.6799 6.26191 13.6472 4.90591 12.3271 3.9136C13.3486 3.1458 14.5385 2.59353 15.8339 2.32861C17.7309 4.25934 18.9994 6.80745 19.3025 9.64068C18.0991 8.81002 16.7409 8.19039 15.2771 7.83118Z" fill="#4A5CFF"/>
<path d="M24.2721 16.7147C23.41 17.7093 22.3279 18.5107 21.1044 19.0406C20.945 17.1323 20.1727 15.3991 18.9873 14.0297C19.241 13.0463 19.3757 12.0181 19.3757 10.9562C19.3757 10.5117 19.351 10.0739 19.3061 9.64062C21.7218 11.3019 23.5178 13.8007 24.2721 16.7147Z" fill="#F43737"/>
<path d="M4.09493 22.9134C2.87813 22.6148 1.73092 22.1343 0.68698 21.5035C0.289609 21.2633 0.0359208 20.839 0.0134705 20.3742C0.00449037 20.1812 0 19.9859 0 19.7883C0 18.7264 0.134702 17.6982 0.38839 16.7148C1.25048 17.7094 2.33259 18.5086 3.55613 19.0385C3.53368 19.2854 3.52245 19.5346 3.52245 19.7883C3.52245 20.8884 3.7245 21.9413 4.09493 22.9134Z" fill="#FFCD15"/>
<path d="M5.67152 14.0277C4.48614 15.3972 3.71385 17.1326 3.55446 19.0386C2.33092 18.5088 1.25106 17.7096 0.386719 16.715C1.1388 13.801 2.93483 11.3022 5.35273 9.63867C5.30783 10.072 5.28313 10.5097 5.28313 10.9543C5.28313 12.0162 5.41783 13.0444 5.67152 14.0277Z" fill="#FFCD15"/>
<path d="M19.3752 10.9539C19.3752 12.0158 19.2405 13.044 18.9868 14.0273C18.1247 13.0328 17.0426 12.2336 15.8191 11.7037C15.8415 11.4568 15.8528 11.2053 15.8528 10.9539C15.8528 9.85383 15.6507 8.80091 15.2803 7.83105C16.7418 8.19026 18.1023 8.80989 19.3056 9.64055C19.3505 10.0716 19.3752 10.5094 19.3752 10.9539Z" fill="#4A5CFF"/>
<path d="M15.8512 10.9541C15.8512 11.2078 15.8399 11.457 15.8175 11.704C14.7466 11.2392 13.5657 10.9811 12.3265 10.9811C11.0872 10.9811 9.90631 11.2392 8.83543 11.704C8.81298 11.457 8.80176 11.2056 8.80176 10.9541C8.80176 9.85405 9.00381 8.80113 9.37424 7.83128C10.3194 7.59779 11.3072 7.47656 12.3242 7.47656C13.3412 7.47656 14.329 7.60004 15.2742 7.83128C15.6491 8.80113 15.8512 9.85405 15.8512 10.9541Z" fill="#FFCD15"/>
<path d="M24.6584 19.7885C24.6584 19.9838 24.6539 20.1791 24.6449 20.3744C24.6225 20.8392 24.3688 21.2635 23.9714 21.5037C22.9275 22.1345 21.7803 22.615 20.5635 22.9136C20.9339 21.9415 21.136 20.8885 21.136 19.7907C21.136 19.537 21.1247 19.2878 21.1023 19.0409C22.3258 18.5111 23.4057 17.7118 24.27 16.7173C24.5215 17.6984 24.6584 18.7288 24.6584 19.7885Z" fill="#F43737"/>
<path d="M21.1344 19.7882C21.1344 20.8883 20.9324 21.9412 20.5619 22.9111C19.6168 23.1445 18.6289 23.268 17.612 23.268C15.7216 23.268 13.9301 22.8415 12.3271 22.0781C13.6405 21.4518 14.8259 20.6032 15.8339 19.5794C16.4086 19.6984 17.0035 19.759 17.612 19.759C18.8512 19.759 20.0321 19.5009 21.103 19.0361C21.1254 19.2853 21.1344 19.5368 21.1344 19.7882Z" fill="#F43737"/>
<path d="M15.8357 19.5821C14.8277 20.6058 13.6423 21.4567 12.329 22.0808C11.0157 21.4544 9.83028 20.6058 8.82227 19.5821C10.1176 19.3171 11.3075 18.7649 12.329 17.9971C13.3482 18.7649 14.5404 19.3149 15.8357 19.5821Z" fill="#F43737"/>
<path d="M12.3294 17.9942C11.3079 18.762 10.118 19.3143 8.82263 19.5792C7.32744 18.0593 6.22288 16.1533 5.67285 14.0272C6.53494 13.0327 7.61705 12.2334 8.84059 11.7036C9.05611 14.2719 10.3784 16.5282 12.3294 17.9942Z" fill="#F43737"/>
<path d="M8.80566 10.9537C8.80566 11.2074 8.81688 11.4566 8.83933 11.7035C7.61579 12.2334 6.53593 13.0326 5.67159 14.0271C5.41791 13.0438 5.2832 12.0156 5.2832 10.9537C5.2832 10.5092 5.3079 10.0714 5.3528 9.63811C6.55838 8.80745 7.91662 8.18782 9.37814 7.82861C9.00771 8.80071 8.80566 9.85363 8.80566 10.9537Z" fill="#FFCD15"/>
<path d="M12.3288 3.91341C11.0087 4.90571 9.97603 6.25947 9.37886 7.82874C7.91734 8.18795 6.55685 8.80757 5.35352 9.63824C5.65659 6.80501 6.92504 4.2569 8.82209 2.32617C10.1152 2.59333 11.3073 3.14336 12.3288 3.91341Z" fill="#4A5CFF"/>
<path d="M15.8357 2.32641C14.5404 2.59133 13.3505 3.1436 12.329 3.9114C11.3075 3.1436 10.1176 2.59133 8.82227 2.32641C9.65293 1.48004 10.6071 0.754892 11.6532 0.173429C12.0731 -0.0578095 12.5849 -0.0578095 13.0048 0.173429C14.0487 0.754892 15.0028 1.48228 15.8357 2.32641Z" fill="#4A5CFF"/>
<path d="M15.2779 7.83113C14.8244 7.71888 14.3597 7.63357 13.886 7.5752C14.4989 7.88725 14.9209 8.52484 14.9209 9.26121C14.9209 10.1166 14.3552 10.8372 13.5762 11.073C14.3619 11.1852 15.114 11.4007 15.819 11.7061C15.8414 11.4591 15.8526 11.2077 15.8526 10.9562C15.8526 9.8539 15.6506 8.80098 15.2779 7.83113Z" fill="#D09903"/>
<path d="M7.93389 13.3247C8.48617 13.3247 8.98232 13.5627 9.32805 13.9399C9.07212 13.2327 8.90374 12.4828 8.83864 11.7061C7.61509 12.2359 6.53524 13.0351 5.6709 14.0297C5.77417 14.4315 5.89765 14.8244 6.04133 15.2083C6.04806 14.1666 6.8922 13.3247 7.93389 13.3247Z" fill="#D10202"/>
<path d="M15.7977 18.7133C14.7515 18.7133 13.9051 17.8646 13.9051 16.8207C13.9051 16.6793 13.9208 16.5446 13.95 16.4121C13.4786 17.007 12.9353 17.5391 12.3291 17.9949C13.3506 18.7627 14.5405 19.3149 15.8358 19.5798C16.2063 19.2027 16.552 18.8008 16.8708 18.3788C16.5655 18.5898 16.1973 18.7133 15.7977 18.7133Z" fill="#2738D8"/>
<path d="M43.5861 18.3935C42.9193 18.9548 42.2323 19.3611 41.5252 19.6148C40.8314 19.8685 40.0457 19.9942 39.1634 19.9942C38.3642 19.9942 37.6098 19.855 36.9026 19.5744C36.1955 19.2938 35.5826 18.9076 35.0617 18.4137C34.5543 17.9198 34.148 17.3406 33.8404 16.6738C33.5463 15.9936 33.4004 15.2729 33.4004 14.5141C33.4004 13.753 33.5396 13.0414 33.8202 12.3723C34.1143 11.6921 34.5072 11.1061 35.0011 10.6122C35.495 10.1183 36.0742 9.73219 36.741 9.45156C37.4212 9.17093 38.1486 9.03174 38.9209 9.03174C39.6955 9.03174 40.4071 9.17767 41.0627 9.47176C41.716 9.76586 42.2772 10.1655 42.7442 10.6729C43.2246 11.1802 43.5973 11.7931 43.8645 12.5138C44.1316 13.221 44.2641 13.9865 44.2641 14.8149V15.6142H36.7208C36.9341 16.1081 37.2686 16.5144 37.7221 16.8355C38.1756 17.143 38.7099 17.2957 39.3228 17.2957C39.7628 17.2957 40.1624 17.2283 40.5239 17.0959C40.8831 16.95 41.1906 16.7502 41.4443 16.4965L43.5861 18.3935ZM38.8648 11.6719C38.3305 11.6719 37.8702 11.8178 37.4841 12.1119C37.098 12.406 36.8241 12.8191 36.6647 13.3534H41.0851C40.9123 12.846 40.6249 12.4397 40.2253 12.1321C39.8369 11.8246 39.3834 11.6719 38.8648 11.6719Z" fill="white"/>
<path d="M46.1807 19.7941V9.21104H49.4225V9.89128C49.7952 9.59718 50.2038 9.37717 50.6438 9.23124C51.0973 9.08532 51.571 9.01123 52.0649 9.01123C52.7182 9.01123 53.3109 9.14369 53.8452 9.41085C54.393 9.66453 54.8465 10.017 55.2057 10.4705C55.6322 10.0035 56.1396 9.64433 56.7256 9.39064C57.3115 9.13695 57.9536 9.01123 58.6451 9.01123C59.8462 9.01123 60.825 9.41085 61.5861 10.2123C62.3606 11.0116 62.7467 12.033 62.7467 13.2723V19.7941H59.5049V13.7123C59.5049 13.1398 59.3455 12.6796 59.0245 12.3316C58.7169 11.9724 58.3038 11.7906 57.783 11.7906C57.4238 11.7906 57.096 11.8647 56.8019 12.0106C56.5078 12.143 56.2541 12.3384 56.0408 12.5898C56.0543 12.6976 56.061 12.8098 56.061 12.9288C56.0745 13.0366 56.0813 13.1488 56.0813 13.2678V19.7896H52.8394V13.7078C52.8394 13.1354 52.68 12.6751 52.359 12.3271C52.0514 11.9679 51.6383 11.7861 51.1175 11.7861C50.7583 11.7861 50.4305 11.8534 50.1364 11.9859C49.8558 12.1049 49.6156 12.2935 49.4158 12.5472V19.7896H46.1807V19.7941Z" fill="white"/>
<path d="M65.0625 24.7224V9.21146H68.2639V9.99273C68.677 9.69863 69.1238 9.47188 69.6042 9.31248C70.0846 9.15309 70.5853 9.07227 71.1039 9.07227C71.8515 9.07227 72.5519 9.21146 73.2052 9.49209C73.872 9.77271 74.4467 10.1589 74.9249 10.6528C75.4188 11.1467 75.805 11.7259 76.0856 12.3927C76.3662 13.046 76.5054 13.7532 76.5054 14.5142C76.5054 15.2753 76.3595 15.987 76.0654 16.656C75.7848 17.3093 75.3986 17.884 74.9047 18.3757C74.4108 18.8561 73.8249 19.2355 73.1446 19.5161C72.4778 19.7968 71.7639 19.936 71.0028 19.936C70.5089 19.936 70.0352 19.8754 69.5817 19.7564C69.1283 19.6374 68.7017 19.4623 68.3021 19.2355V24.0174L65.0625 24.7224ZM70.5449 11.8314C70.0914 11.8314 69.6783 11.9055 69.3056 12.0514C68.9329 12.1839 68.5984 12.3904 68.3043 12.671V16.3731C68.585 16.6268 68.9172 16.8266 69.3056 16.9725C69.6918 17.1185 70.1048 17.1925 70.5449 17.1925C71.3329 17.1925 71.9929 16.9389 72.525 16.4315C73.0593 15.9106 73.3242 15.2708 73.3242 14.512C73.3242 13.7509 73.0503 13.1178 72.5048 12.6104C71.9727 12.0918 71.3194 11.8314 70.5449 11.8314Z" fill="white"/>
<path d="M80.0577 7.48054C79.5637 7.48054 79.1439 7.30767 78.7982 6.95969C78.4502 6.61396 78.2773 6.19189 78.2773 5.70023C78.2773 5.20632 78.4502 4.7865 78.7982 4.44077C79.1439 4.09503 79.566 3.91992 80.0577 3.91992C80.5493 3.91992 80.9714 4.09279 81.3171 4.44077C81.6629 4.7865 81.838 5.20857 81.838 5.70023C81.838 6.19414 81.6651 6.61396 81.3171 6.95969C80.9714 7.30543 80.5516 7.48054 80.0577 7.48054ZM81.6786 9.21146V19.7945H78.4367V9.21146H81.6786Z" fill="white"/>
<path d="M84.0723 19.7945V9.21141H87.3141V10.2711C87.6598 9.85798 88.0684 9.53694 88.5354 9.31019C89.0024 9.08344 89.5232 8.97119 90.0957 8.97119C90.4032 8.98466 90.6502 9.0116 90.8365 9.05201C91.0229 9.07895 91.1823 9.13957 91.317 9.23162V12.0514C91.1037 11.9571 90.8635 11.8852 90.5963 11.8314C90.3292 11.764 90.0553 11.7303 89.7769 11.7303C89.2695 11.7303 88.7958 11.8493 88.3558 12.0895C87.9292 12.3298 87.5813 12.6553 87.3163 13.0706V19.7922H84.0723V19.7945Z" fill="white"/>
<path d="M94.7276 7.48054C94.2337 7.48054 93.8138 7.30767 93.4681 6.95969C93.1201 6.61396 92.9473 6.19189 92.9473 5.70023C92.9473 5.20632 93.1201 4.7865 93.4681 4.44077C93.8138 4.09503 94.2359 3.91992 94.7276 3.91992C95.2215 3.91992 95.6413 4.09279 95.987 4.44077C96.3328 4.78875 96.5079 5.20857 96.5079 5.70023C96.5079 6.19414 96.335 6.61396 95.987 6.95969C95.6413 7.30543 95.2215 7.48054 94.7276 7.48054Z" fill="white"/>
<path d="M96.3492 9.21191H93.1074V19.795H96.3492V9.21191Z" fill="white"/>
<path d="M104.025 17.1948C104.465 17.1948 104.872 17.1005 105.247 16.9141C105.619 16.7278 105.981 16.4404 106.327 16.0543L108.246 18.0546C107.712 18.6675 107.058 19.1479 106.286 19.4959C105.512 19.8304 104.706 19.9966 103.866 19.9966C103.08 19.9966 102.339 19.8574 101.646 19.5767C100.965 19.2961 100.373 18.91 99.8654 18.4161C99.3714 17.9221 98.9786 17.3429 98.6845 16.6762C98.4038 16.0094 98.2646 15.2887 98.2646 14.5164C98.2646 13.7419 98.4038 13.0235 98.6845 12.3567C98.9786 11.6765 99.3714 11.0973 99.8654 10.6168C100.373 10.1229 100.965 9.73677 101.646 9.45614C102.339 9.16204 103.08 9.01611 103.866 9.01611C104.733 9.01611 105.561 9.18898 106.347 9.53696C107.135 9.8827 107.802 10.3631 108.347 10.9783L106.367 13.0392C105.994 12.6261 105.613 12.3186 105.226 12.1187C104.84 11.9189 104.414 11.8179 103.947 11.8179C103.253 11.8179 102.667 12.0783 102.187 12.5992C101.72 13.12 101.486 13.7599 101.486 14.5187C101.486 15.2797 101.726 15.9196 102.207 16.4382C102.699 16.9411 103.307 17.1948 104.025 17.1948Z" fill="white"/>
<path d="M113.311 19.9745C112.191 19.9745 111.27 19.6669 110.55 19.054C109.829 18.4411 109.47 17.6531 109.47 16.6923C109.47 15.691 109.849 14.912 110.61 14.3507C111.385 13.7894 112.458 13.5111 113.832 13.5111C114.245 13.5111 114.651 13.538 115.053 13.5919C115.453 13.6458 115.848 13.7176 116.234 13.8119V13.291C116.234 12.7567 116.061 12.3638 115.713 12.1102C115.381 11.843 114.88 11.7105 114.213 11.7105C113.8 11.7105 113.333 11.7779 112.813 11.9103C112.292 12.0428 111.692 12.2561 111.012 12.5502L109.851 10.1704C110.704 9.7843 111.54 9.49694 112.352 9.3106C113.179 9.11079 113.993 9.00977 114.793 9.00977C116.261 9.00977 117.399 9.36224 118.214 10.0694C119.027 10.7631 119.435 11.7442 119.435 13.0104V19.7926H116.234V19.1528C115.807 19.4469 115.354 19.6602 114.874 19.7926C114.404 19.9161 113.883 19.9745 113.311 19.9745ZM112.55 16.6339C112.55 16.9684 112.696 17.2266 112.99 17.4152C113.284 17.6015 113.69 17.6958 114.211 17.6958C114.597 17.6958 114.959 17.6554 115.291 17.5768C115.637 17.496 115.951 17.3703 116.232 17.1974V15.8369C115.924 15.7561 115.612 15.6977 115.291 15.6573C114.97 15.6169 114.645 15.5967 114.31 15.5967C113.749 15.5967 113.315 15.691 113.01 15.8773C112.705 16.0479 112.55 16.3016 112.55 16.6339Z" fill="white"/>
<path d="M125.001 5.08936V19.7943H121.759V5.78981L125.001 5.08936Z" fill="white"/>
</svg>
