<?xml version="1.0" standalone="no"?>
<!DOCTYPE svg PUBLIC "-//W3C//DTD SVG 20010904//EN"
 "http://www.w3.org/TR/2001/REC-SVG-20010904/DTD/svg10.dtd">
<svg version="1.0" xmlns="http://www.w3.org/2000/svg"
 width="641.000000pt" height="641.000000pt" viewBox="0 0 641.000000 641.000000"
 preserveAspectRatio="xMidYMid meet">
<metadata>
Created by potrace 1.14, written by Peter Selinger 2001-2017
</metadata>
<g transform="translate(0.000000,641.000000) scale(0.100000,-0.100000)"
fill="#000000" stroke="none">
<path d="M3103 6148 c-96 -11 -184 -55 -378 -191 -197 -139 -403 -322 -545
-487 -30 -35 -60 -68 -65 -74 -6 -6 -47 -60 -91 -119 -248 -334 -428 -714
-523 -1108 -17 -68 -32 -135 -35 -149 -2 -14 -7 -41 -10 -60 -3 -19 -8 -48
-11 -65 -3 -16 -8 -55 -11 -85 -3 -30 -7 -64 -9 -75 -2 -11 -4 -25 -4 -31 -1
-6 -22 -26 -48 -44 -149 -105 -400 -334 -514 -470 -73 -86 -112 -134 -134
-164 -11 -16 -34 -47 -51 -70 -139 -187 -290 -473 -386 -731 -66 -178 -139
-461 -154 -600 -3 -33 -8 -63 -10 -66 -9 -15 -19 -209 -19 -364 0 -163 2 -173
28 -235 33 -78 97 -155 169 -203 91 -60 409 -217 440 -217 8 0 18 -4 24 -8 15
-14 271 -99 354 -118 19 -4 37 -8 40 -9 8 -2 114 -25 140 -31 24 -5 118 -21
170 -29 97 -15 205 -20 410 -20 241 0 347 8 505 36 33 6 73 13 89 15 15 2 36
6 46 9 10 3 28 8 41 10 128 25 370 103 530 171 69 30 130 54 135 54 5 0 47
-15 94 -34 310 -127 628 -201 945 -223 178 -12 441 -7 575 12 19 2 58 7 85 10
127 14 392 78 555 133 190 65 448 183 579 266 92 58 165 164 191 275 12 50 9
356 -4 417 -2 11 -7 45 -10 75 -3 30 -8 63 -10 74 -2 11 -7 40 -11 65 -4 25
-16 83 -27 130 -11 47 -22 95 -24 108 -2 12 -20 75 -40 139 -125 412 -367 843
-649 1153 -75 82 -210 215 -275 270 -36 30 -67 58 -70 61 -3 3 -32 25 -65 50
-33 24 -62 47 -65 50 -3 3 -15 11 -26 17 -18 9 -23 27 -33 99 -6 48 -14 106
-17 128 -10 74 -63 299 -92 395 -105 337 -245 620 -465 934 -12 17 -24 33 -27
36 -3 3 -31 37 -62 77 -189 235 -438 461 -700 633 -235 154 -341 194 -475 178z
m131 -1001 c244 -184 457 -437 603 -717 60 -115 127 -270 120 -277 -3 -3 -27
0 -54 7 -154 37 -342 66 -503 77 -284 19 -577 0 -845 -57 -175 -37 -165 -38
-140 10 9 17 16 33 17 37 6 41 117 270 179 370 89 142 207 290 334 416 56 56
205 186 214 187 2 0 36 -24 75 -53z m161 -1781 c44 -4 89 -9 100 -12 11 -2 31
-6 45 -8 147 -25 315 -71 448 -124 l94 -37 -7 -65 c-29 -280 -167 -665 -316
-888 -16 -24 -29 -47 -29 -53 0 -5 -4 -9 -8 -9 -5 0 -14 -11 -20 -24 -15 -34
-159 -209 -239 -291 -56 -59 -158 -151 -234 -212 -13 -11 -23 -8 -65 24 -454
341 -759 845 -852 1408 l-18 110 22 13 c71 39 335 118 469 141 96 17 116 19
195 26 41 4 76 8 77 9 5 4 268 -2 338 -8z m-1845 -851 c149 -465 385 -862 727
-1223 29 -31 51 -57 50 -59 -2 -1 -48 -9 -103 -17 -311 -47 -617 -32 -898 44
-90 24 -261 82 -309 105 l-37 17 6 57 c3 31 14 99 25 151 11 52 22 106 25 119
11 53 69 223 111 321 57 133 115 242 195 364 44 66 170 228 174 223 2 -1 17
-47 34 -102z m3469 -126 c104 -157 233 -422 266 -549 2 -8 16 -55 30 -105 28
-102 43 -174 59 -302 3 -19 -7 -27 -68 -51 -187 -77 -405 -129 -621 -149 -158
-14 -404 -6 -529 18 -27 5 -51 9 -53 9 -2 0 6 10 19 23 62 62 156 178 296 362
13 18 107 168 137 220 97 167 215 440 275 633 l31 103 40 -48 c22 -26 76 -100
118 -164z"/>
</g>
</svg>
