<?xml version="1.0" encoding="utf-8"?>
<!-- Generator: Adobe Illustrator 26.1.0, SVG Export Plug-In . SVG Version: 6.00 Build 0)  -->
<svg version="1.1" id="Layer_1" xmlns="http://www.w3.org/2000/svg" xmlns:xlink="http://www.w3.org/1999/xlink" x="0px" y="0px"
   viewBox="0 0 647.6 164.1" style="enable-background:new 0 0 647.6 164.1;" xml:space="preserve">
<style type="text/css">
  .st0{fill:#F43737;}
  .st1{fill:#FFCD15;}
  .st2{fill:#4A5CFF;}
  .st3{fill:#D09903;}
  .st4{fill:#D10202;}
  .st5{fill:#2738D8;}
  .st6{fill:#FFFFFF;}
</style>
<g>
  <g>
    <path class="st0" d="M153.5,101.4C153.5,101.4,153.5,101.4,153.5,101.4c-3.4-13-11.4-24.1-22.1-31.5c0.2,1.9,0.3,3.9,0.3,5.9
      c0,4.7-0.6,9.3-1.7,13.7c0,0,0,0,0,0c5.3,6.1,8.7,13.8,9.4,22.3c-4.8,2.1-10,3.2-15.5,3.2c-2.7,0-5.4-0.3-7.9-0.8
      c-5.8-1.2-11.1-3.6-15.6-7.1c-8.7-6.5-14.6-16.6-15.5-28c-5.4,2.4-10.3,5.9-14.1,10.3v0c2.4,9.5,7.4,18,14,24.7
      c4.5,4.6,9.8,8.3,15.6,11.1c7.1,3.4,15.1,5.3,23.5,5.3c4.5,0,8.9-0.5,13.1-1.6c5.4-1.3,10.5-3.5,15.2-6.3c1.8-1.1,2.9-3,3-5
      c0-0.9,0.1-1.7,0.1-2.6C155.2,110.4,154.6,105.8,153.5,101.4z"/>
    <path class="st1" d="M113.5,61.9L113.5,61.9c-4.2-1-8.6-1.6-13.1-1.6c-4.5,0-8.9,0.5-13.1,1.6v0c-6.5,1.6-12.6,4.4-17.9,8.1
      c-10.8,7.4-18.8,18.5-22.1,31.5v0c-1.1,4.4-1.7,9-1.7,13.7c0,0.9,0,1.7,0.1,2.6c0.1,2.1,1.2,4,3,5c4.7,2.8,9.8,4.9,15.2,6.3
      c4.2,1,8.6,1.6,13.1,1.6c8.4,0,16.4-1.9,23.5-5.3c-5.8-2.8-11.1-6.6-15.6-11.1c-2.6,0.5-5.2,0.8-7.9,0.8c-5.5,0-10.8-1.1-15.5-3.2
      c0.7-8.5,4.2-16.2,9.4-22.3v0c3.8-4.4,8.7-8,14.1-10.3c4.8-2.1,10-3.2,15.5-3.2s10.8,1.1,15.5,3.2c0.1-1.1,0.1-2.2,0.1-3.3
      C116,70.9,115.1,66.2,113.5,61.9z"/>
    <path class="st2" d="M131.4,69.9c-1.3-12.6-7-24-15.5-32.6c-3.7-3.8-8-7-12.6-9.6c-1.9-1-4.1-1-6,0c-4.7,2.6-8.9,5.8-12.6,9.6
      c-8.5,8.6-14.1,20-15.5,32.6c5.4-3.7,11.4-6.5,17.9-8.1v0c2.7-7,7.3-13,13.1-17.4c5.9,4.4,10.5,10.5,13.1,17.4v0
      c1.7,4.3,2.6,9,2.6,13.9c0,1.1,0,2.2-0.1,3.3c-1,11.4-6.9,21.5-15.5,28c4.5,3.4,9.9,5.9,15.6,7.1c6.7-6.8,11.6-15.3,14-24.7
      c0,0,0,0,0,0c1.1-4.4,1.7-9,1.7-13.7C131.7,73.8,131.6,71.8,131.4,69.9z"/>
    <path class="st3" d="M113.5,61.9L113.5,61.9c-2-0.5-4.1-0.9-6.2-1.1c2.7,1.4,4.6,4.2,4.6,7.5c0,3.8-2.5,7-6,8.1
      c3.5,0.5,6.8,1.5,10,2.8c0.1-1.1,0.1-2.2,0.1-3.3C116,70.9,115.1,66.2,113.5,61.9z"/>
    <path class="st4" d="M80.7,86.3c2.5,0,4.7,1.1,6.2,2.7c-1.1-3.2-1.9-6.5-2.2-10c-5.4,2.4-10.3,5.9-14.1,10.3v0
      c0.5,1.8,1,3.5,1.6,5.2C72.3,90.1,76.1,86.3,80.7,86.3z"/>
    <path class="st5" d="M115.8,110.3c-4.7,0-8.4-3.8-8.4-8.4c0-0.6,0.1-1.2,0.2-1.8c-2.1,2.6-4.5,5-7.2,7.1c4.5,3.4,9.9,5.9,15.6,7.1
      c1.7-1.7,3.2-3.5,4.6-5.3C119.2,109.8,117.5,110.3,115.8,110.3z"/>
  </g>
  <g>
    <path class="st6" d="M239.5,108.9c-3,2.5-6,4.3-9.2,5.4c-3.1,1.1-6.6,1.7-10.5,1.7c-3.6,0-6.9-0.6-10.1-1.9
      c-3.1-1.2-5.9-3-8.2-5.2c-2.3-2.2-4.1-4.8-5.4-7.8c-1.3-3-2-6.2-2-9.6s0.6-6.6,1.9-9.5c1.3-3,3.1-5.6,5.3-7.8
      c2.2-2.2,4.8-3.9,7.8-5.2c3-1.2,6.3-1.9,9.7-1.9c3.4,0,6.6,0.7,9.5,2c2.9,1.3,5.4,3.1,7.5,5.3c2.1,2.3,3.8,5,5,8.2
      c1.2,3.1,1.8,6.6,1.8,10.2v3.6H209c1,2.2,2.4,4,4.5,5.4c2,1.4,4.4,2,7.1,2c2,0,3.7-0.3,5.3-0.9c1.6-0.7,3-1.5,4.1-2.7L239.5,108.9
      z M218.5,79c-2.4,0-4.4,0.7-6.1,2c-1.7,1.3-2.9,3.1-3.7,5.5h19.7c-0.8-2.3-2-4.1-3.8-5.4C222.8,79.7,220.8,79,218.5,79z"/>
    <path class="st6" d="M251.1,115.2V68h14.4v3c1.7-1.3,3.5-2.3,5.4-2.9c2-0.7,4.1-1,6.3-1c2.9,0,5.6,0.6,7.9,1.8
      c2.4,1.1,4.5,2.7,6.1,4.7c1.9-2.1,4.2-3.7,6.8-4.8c2.6-1.1,5.5-1.7,8.6-1.7c5.3,0,9.7,1.8,13.1,5.3c3.4,3.6,5.2,8.1,5.2,13.6v29.1
      h-14.4V88.1c0-2.6-0.7-4.6-2.1-6.1c-1.4-1.6-3.2-2.4-5.5-2.4c-1.6,0-3.1,0.3-4.4,1c-1.3,0.6-2.4,1.5-3.4,2.6
      c0.1,0.5,0.1,1,0.1,1.5c0.1,0.5,0.1,1,0.1,1.5v29.1h-14.4V88.1c0-2.6-0.7-4.6-2.1-6.1c-1.4-1.6-3.2-2.4-5.5-2.4
      c-1.6,0-3.1,0.3-4.4,0.9c-1.2,0.5-2.3,1.4-3.2,2.5v32.3H251.1z"/>
    <path class="st6" d="M335.2,137.1V68h14.3v3.5c1.8-1.3,3.8-2.3,6-3c2.1-0.7,4.4-1.1,6.7-1.1c3.3,0,6.4,0.6,9.4,1.9
      c3,1.2,5.5,3,7.7,5.2c2.2,2.2,3.9,4.8,5.2,7.8c1.2,2.9,1.9,6.1,1.9,9.4s-0.7,6.6-2,9.5c-1.2,2.9-3,5.5-5.2,7.7
      c-2.2,2.1-4.8,3.8-7.8,5.1c-3,1.2-6.1,1.9-9.5,1.9c-2.2,0-4.3-0.3-6.3-0.8s-3.9-1.3-5.7-2.3V134L335.2,137.1z M359.6,79.7
      c-2,0-3.9,0.3-5.5,1c-1.7,0.6-3.1,1.5-4.5,2.8v16.5c1.2,1.1,2.7,2,4.5,2.7c1.7,0.7,3.6,1,5.5,1c3.5,0,6.4-1.1,8.8-3.4
      c2.4-2.3,3.6-5.2,3.6-8.6s-1.2-6.2-3.7-8.5C366,80.8,363.1,79.7,359.6,79.7z"/>
    <path class="st6" d="M402,60.3c-2.2,0-4.1-0.8-5.6-2.3c-1.5-1.5-2.3-3.4-2.3-5.6c0-2.2,0.8-4.1,2.3-5.6s3.4-2.3,5.6-2.3
      c2.2,0,4.1,0.8,5.6,2.3c1.5,1.5,2.3,3.4,2.3,5.6c0,2.2-0.8,4.1-2.3,5.6C406.1,59.5,404.2,60.3,402,60.3z M409.2,68v47.1h-14.4V68
      H409.2z"/>
    <path class="st6" d="M419.9,115.2V68h14.4v4.7c1.5-1.8,3.4-3.3,5.4-4.3c2.1-1,4.4-1.5,7-1.5c1.4,0.1,2.5,0.2,3.3,0.4
      c0.8,0.1,1.5,0.4,2.1,0.8v12.6c-1-0.4-2-0.7-3.2-1c-1.2-0.3-2.4-0.4-3.7-0.4c-2.3,0-4.4,0.5-6.3,1.6c-1.9,1.1-3.4,2.5-4.6,4.4
      v29.9H419.9z"/>
    <path class="st6" d="M467.3,60.3c-2.2,0-4.1-0.8-5.6-2.3c-1.5-1.5-2.3-3.4-2.3-5.6c0-2.2,0.8-4.1,2.3-5.6c1.5-1.5,3.4-2.3,5.6-2.3
      s4.1,0.8,5.6,2.3s2.3,3.4,2.3,5.6c0,2.2-0.8,4.1-2.3,5.6C471.4,59.5,469.5,60.3,467.3,60.3z"/>
    <rect x="460.1" y="68" class="st6" width="14.4" height="47.1"/>
    <path class="st6" d="M508.8,103.6c2,0,3.8-0.4,5.4-1.2c1.7-0.8,3.3-2.1,4.8-3.8l8.6,8.9c-2.4,2.7-5.3,4.9-8.7,6.4
      c-3.4,1.5-7,2.2-10.8,2.2c-3.5,0-6.8-0.6-9.9-1.9c-3-1.2-5.7-3-7.9-5.2c-2.2-2.2-3.9-4.8-5.3-7.8c-1.2-3-1.9-6.2-1.9-9.6
      c0-3.4,0.6-6.7,1.9-9.6c1.3-3,3.1-5.6,5.3-7.8c2.3-2.2,4.9-3.9,7.9-5.2c3.1-1.3,6.4-2,9.9-2c3.9,0,7.5,0.8,11.1,2.3
      c3.5,1.5,6.5,3.7,8.9,6.4l-8.8,9.2c-1.7-1.8-3.4-3.2-5.1-4.1c-1.7-0.9-3.6-1.3-5.7-1.3c-3.1,0-5.7,1.2-7.8,3.5
      c-2.1,2.3-3.1,5.2-3.1,8.6s1.1,6.2,3.2,8.6C502.8,102.4,505.5,103.6,508.8,103.6z"/>
    <path class="st6" d="M550.1,116c-5,0-9.1-1.4-12.3-4.1c-3.2-2.7-4.8-6.2-4.8-10.5c0-4.5,1.7-7.9,5.1-10.4
      c3.4-2.5,8.2-3.7,14.3-3.7c1.8,0,3.7,0.1,5.4,0.4c1.8,0.2,3.5,0.6,5.3,1v-2.3c0-2.4-0.8-4.1-2.3-5.3c-1.5-1.2-3.7-1.8-6.7-1.8
      c-1.8,0-3.9,0.3-6.2,0.9c-2.3,0.6-5,1.5-8,2.9l-5.2-10.6c3.8-1.7,7.5-3,11.1-3.8c3.7-0.9,7.3-1.3,10.9-1.3
      c6.5,0,11.6,1.6,15.2,4.7c3.6,3.1,5.4,7.5,5.4,13.1v30.2h-14.3v-2.9c-1.9,1.3-3.9,2.3-6.1,2.9C555,115.7,552.7,116,550.1,116z
       M546.7,101.1c0,1.5,0.7,2.6,2,3.5c1.3,0.8,3.1,1.2,5.4,1.2c1.7,0,3.3-0.2,4.8-0.5c1.5-0.4,2.9-0.9,4.2-1.7v-6.1
      c-1.4-0.4-2.8-0.6-4.2-0.8c-1.4-0.2-2.9-0.3-4.4-0.3c-2.5,0-4.4,0.4-5.8,1.2C547.4,98.5,546.7,99.6,546.7,101.1z"/>
    <path class="st6" d="M602.2,49.7v65.5h-14.4V52.8L602.2,49.7z"/>
  </g>
</g>
</svg>
