<?xml version="1.0" encoding="utf-8"?>
<svg viewBox="128.783 99.417 260.217 293.118" xmlns="http://www.w3.org/2000/svg">
  <g transform="matrix(2.492496, 0, 0, 2.492496, -551.01532, -536.38623)" style="">
    <path class="st0" d="M 354.338 337.887 C 348.338 342.687 339.938 346.287 331.538 346.287 C 312.338 346.287 299.138 331.887 299.138 312.687 C 299.138 293.487 312.338 280.287 331.538 280.287 C 339.938 280.287 348.338 282.687 354.338 288.687 L 357.938 292.287 L 377.138 274.287 L 372.338 270.687 C 361.538 261.087 347.138 255.087 331.538 255.087 C 297.938 255.087 272.738 280.287 272.738 313.887 C 272.738 347.487 297.938 372.687 331.538 372.687 C 347.138 372.687 361.538 366.687 372.338 357.087 L 377.138 353.487 L 357.938 334.287 L 354.338 337.887 Z" style="fill: rgb(23, 49, 59);"/>
    <circle class="st1" cx="330.338" cy="313.887" r="19.2" style="fill: rgb(239, 67, 53);"/>
  </g>
</svg>