<svg width="501" height="94" viewBox="0 0 501 94" fill="none" xmlns="http://www.w3.org/2000/svg">
<g clip-path="url(#clip0_806_771)">
<path d="M175.022 67.22C172.352 69.46 169.602 71.09 166.782 72.1C164.012 73.11 160.862 73.62 157.342 73.62C154.142 73.62 151.122 73.06 148.302 71.94C145.472 70.82 143.022 69.27 140.942 67.3C138.912 65.33 137.292 63.01 136.062 60.34C134.892 57.62 134.302 54.74 134.302 51.7C134.302 48.66 134.862 45.8 135.982 43.14C137.152 40.42 138.732 38.07 140.702 36.1C142.672 34.13 144.992 32.58 147.662 31.46C150.382 30.34 153.292 29.78 156.382 29.78C159.472 29.78 162.332 30.37 164.942 31.54C167.552 32.71 169.792 34.31 171.662 36.34C173.582 38.37 175.072 40.82 176.142 43.7C177.212 46.53 177.742 49.6 177.742 52.9V56.1H147.572C148.422 58.07 149.762 59.7 151.572 60.98C153.382 62.21 155.522 62.82 157.972 62.82C159.732 62.82 161.332 62.55 162.772 62.02C164.212 61.43 165.442 60.63 166.452 59.62L175.012 67.22H175.022ZM156.132 40.33C154.002 40.33 152.162 40.92 150.612 42.09C149.062 43.26 147.972 44.92 147.332 47.05H165.022C164.332 45.02 163.182 43.4 161.582 42.17C160.032 40.94 158.222 40.33 156.142 40.33H156.132Z" fill="#080C1F"/>
<path d="M185.402 72.82V30.49H198.362V33.21C199.852 32.04 201.482 31.16 203.242 30.57C205.052 29.98 206.952 29.69 208.922 29.69C211.532 29.69 213.912 30.22 216.042 31.29C218.232 32.3 220.042 33.72 221.482 35.53C223.192 33.66 225.212 32.22 227.562 31.21C229.912 30.2 232.472 29.69 235.242 29.69C240.042 29.69 243.962 31.29 247.002 34.49C250.092 37.69 251.642 41.77 251.642 46.73V72.82H238.682V48.49C238.682 46.2 238.042 44.36 236.762 42.97C235.532 41.53 233.882 40.81 231.802 40.81C230.362 40.81 229.052 41.1 227.882 41.69C226.712 42.22 225.692 43 224.842 44.01C224.892 44.44 224.922 44.89 224.922 45.37C224.972 45.8 225.002 46.25 225.002 46.73V72.82H212.042V48.49C212.042 46.2 211.402 44.36 210.122 42.97C208.892 41.53 207.242 40.81 205.162 40.81C203.722 40.81 202.412 41.08 201.242 41.61C200.122 42.09 199.162 42.84 198.362 43.85V72.82H185.402Z" fill="#080C1F"/>
<path d="M260.932 92.53V30.49H273.732V33.61C275.382 32.44 277.172 31.53 279.092 30.89C281.012 30.25 283.012 29.93 285.092 29.93C288.082 29.93 290.882 30.49 293.492 31.61C296.162 32.73 298.452 34.28 300.372 36.25C302.342 38.22 303.892 40.54 305.012 43.21C306.132 45.82 306.692 48.65 306.692 51.69C306.692 54.73 306.102 57.59 304.932 60.25C303.812 62.86 302.262 65.16 300.292 67.13C298.322 69.05 295.972 70.57 293.252 71.69C290.582 72.81 287.732 73.37 284.692 73.37C282.722 73.37 280.822 73.13 279.012 72.65C277.202 72.17 275.492 71.48 273.892 70.57V89.7L260.932 92.52V92.53ZM282.862 40.97C281.052 40.97 279.392 41.26 277.902 41.85C276.412 42.38 275.072 43.21 273.902 44.33V59.13C275.022 60.14 276.352 60.94 277.902 61.53C279.452 62.12 281.102 62.41 282.862 62.41C286.012 62.41 288.652 61.4 290.782 59.37C292.912 57.29 293.982 54.73 293.982 51.69C293.982 48.65 292.892 46.11 290.702 44.09C288.572 42.01 285.952 40.97 282.862 40.97Z" fill="#080C1F"/>
<path d="M320.912 23.56C318.942 23.56 317.262 22.87 315.872 21.48C314.482 20.09 313.792 18.41 313.792 16.44C313.792 14.47 314.482 12.79 315.872 11.4C317.262 10.01 318.942 9.32 320.912 9.32C322.882 9.32 324.562 10.01 325.952 11.4C327.342 12.79 328.032 14.47 328.032 16.44C328.032 18.41 327.342 20.09 325.952 21.48C324.562 22.87 322.882 23.56 320.912 23.56ZM327.392 30.49V72.82H314.432V30.49H327.392Z" fill="#080C1F"/>
<path d="M336.972 72.82V30.49H349.932V34.73C351.322 33.08 352.942 31.8 354.812 30.89C356.682 29.98 358.762 29.53 361.052 29.53C362.282 29.58 363.262 29.69 364.012 29.85C364.762 29.96 365.402 30.2 365.932 30.57V41.85C365.082 41.48 364.122 41.18 363.052 40.97C361.982 40.7 360.892 40.57 359.772 40.57C357.742 40.57 355.852 41.05 354.092 42.01C352.382 42.97 351.002 44.28 349.932 45.93V72.82H336.972Z" fill="#080C1F"/>
<path d="M379.592 23.56C377.622 23.56 375.942 22.87 374.552 21.48C373.162 20.09 372.472 18.41 372.472 16.44C372.472 14.47 373.162 12.79 374.552 11.4C375.942 10.01 377.622 9.32 379.592 9.32C381.562 9.32 383.242 10.01 384.632 11.4C386.022 12.79 386.712 14.47 386.712 16.44C386.712 18.41 386.022 20.09 384.632 21.48C383.242 22.87 381.562 23.56 379.592 23.56Z" fill="#080C1F"/>
<path d="M386.072 30.49H373.112V72.82H386.072V30.49Z" fill="#080C1F"/>
<path d="M416.782 62.42C418.542 62.42 420.172 62.05 421.662 61.3C423.152 60.55 424.592 59.41 425.982 57.86L433.662 65.86C431.532 68.31 428.912 70.23 425.822 71.62C422.732 72.95 419.502 73.62 416.142 73.62C412.992 73.62 410.032 73.06 407.262 71.94C404.542 70.82 402.172 69.27 400.142 67.3C398.172 65.33 396.592 63.01 395.422 60.34C394.302 57.67 393.742 54.79 393.742 51.7C393.742 48.61 394.302 45.72 395.422 43.06C396.592 40.34 398.172 38.02 400.142 36.1C402.172 34.13 404.542 32.58 407.262 31.46C410.032 30.29 413.002 29.7 416.142 29.7C419.612 29.7 422.922 30.39 426.062 31.78C429.212 33.17 431.882 35.09 434.062 37.54L426.142 45.78C424.652 44.13 423.132 42.9 421.582 42.1C420.032 41.3 418.332 40.9 416.462 40.9C413.692 40.9 411.342 41.94 409.422 44.02C407.552 46.1 406.622 48.66 406.622 51.7C406.622 54.74 407.582 57.3 409.502 59.38C411.472 61.41 413.902 62.42 416.782 62.42Z" fill="#080C1F"/>
<path d="M453.922 73.54C449.442 73.54 445.762 72.31 442.882 69.86C440.002 67.41 438.562 64.26 438.562 60.42C438.562 56.58 440.082 53.3 443.122 51.06C446.212 48.82 450.512 47.7 456.002 47.7C457.652 47.7 459.282 47.81 460.882 48.02C462.482 48.23 464.062 48.53 465.602 48.9V46.82C465.602 44.69 464.912 43.11 463.522 42.1C462.192 41.03 460.192 40.5 457.522 40.5C455.872 40.5 454.002 40.77 451.922 41.3C449.842 41.83 447.442 42.69 444.722 43.86L440.082 34.34C443.502 32.79 446.832 31.65 450.082 30.9C453.392 30.1 456.642 29.7 459.842 29.7C465.712 29.7 470.272 31.11 473.522 33.94C476.782 36.71 478.402 40.64 478.402 45.7V72.83H465.602V70.27C463.892 71.44 462.082 72.3 460.162 72.83C458.292 73.31 456.212 73.55 453.922 73.55V73.54ZM450.882 60.18C450.882 61.51 451.472 62.55 452.642 63.3C453.812 64.05 455.442 64.42 457.522 64.42C459.072 64.42 460.512 64.26 461.842 63.94C463.232 63.62 464.482 63.11 465.602 62.42V56.98C464.372 56.66 463.122 56.42 461.842 56.26C460.562 56.1 459.252 56.02 457.922 56.02C455.682 56.02 453.952 56.39 452.722 57.14C451.492 57.83 450.882 58.85 450.882 60.18Z" fill="#080C1F"/>
<path d="M500.682 14V72.82H487.722V16.8L500.682 14Z" fill="#080C1F"/>
<path d="M98.4815 67.47C95.4515 55.72 88.2115 45.65 78.4715 38.96C78.6515 40.7 78.7515 42.47 78.7515 44.26C78.7515 48.54 78.2115 52.68 77.1815 56.65C81.9515 62.17 85.0715 69.16 85.7115 76.85C81.3915 78.72 76.6415 79.76 71.6515 79.76C69.2015 79.76 66.8015 79.51 64.4915 79.03C59.2715 77.96 54.4715 75.74 50.3615 72.64C42.5015 66.73 37.1715 57.64 36.3015 47.29C31.3715 49.42 27.0215 52.65 23.5415 56.65C25.7515 65.22 30.2015 72.9 36.2315 79.03C40.2915 83.16 45.0715 86.58 50.3615 89.1C56.8215 92.17 64.0415 93.89 71.6515 93.89C75.7515 93.89 79.7315 93.39 83.5315 92.45C88.4315 91.24 93.0515 89.31 97.2615 86.77C98.8615 85.8 99.8915 84.09 99.9815 82.22C100.022 81.44 100.042 80.65 100.042 79.86C100.042 75.58 99.5015 71.44 98.4715 67.48L98.4815 67.47Z" fill="#F43737"/>
<path d="M62.2516 31.67C58.4416 30.73 54.4616 30.23 50.3716 30.23C46.2816 30.23 42.2916 30.73 38.4916 31.66C32.6016 33.11 27.1216 35.61 22.2716 38.95C12.5216 45.66 5.28164 55.73 2.24164 67.47C1.22164 71.43 0.681641 75.58 0.681641 79.86C0.681641 80.65 0.701641 81.44 0.741641 82.22C0.831641 84.09 1.85164 85.8 3.46164 86.77C7.67164 89.31 12.2916 91.25 17.1916 92.45C21.0016 93.39 24.9816 93.89 29.0716 93.89C36.6916 93.89 43.9116 92.17 50.3616 89.1C45.0716 86.58 40.2916 83.16 36.2316 79.03C33.9216 79.51 31.5216 79.76 29.0716 79.76C24.0816 79.76 19.3216 78.72 15.0116 76.85C15.6616 69.16 18.7716 62.17 23.5416 56.66C27.0216 52.65 31.3716 49.43 36.3016 47.29C40.6216 45.42 45.3716 44.38 50.3616 44.38C55.3516 44.38 60.1116 45.42 64.4216 47.29C64.5116 46.29 64.5516 45.28 64.5516 44.27C64.5516 39.84 63.7316 35.6 62.2416 31.68L62.2516 31.67Z" fill="#FFCD15"/>
<path d="M78.4715 38.96C77.2515 27.54 72.1415 17.27 64.4915 9.48999C61.1415 6.07999 57.2915 3.14999 53.0815 0.819994C51.3915 -0.120006 49.3315 -0.120006 47.6415 0.819994C43.4215 3.15999 39.5815 6.07999 36.2315 9.48999C28.5815 17.27 23.4715 27.54 22.2515 38.96C27.1015 35.62 32.5815 33.12 38.4715 31.67C40.8715 25.34 45.0415 19.88 50.3515 15.89C55.6715 19.89 59.8315 25.35 62.2315 31.67C63.7215 35.59 64.5415 39.83 64.5415 44.26C64.5415 45.28 64.5015 46.29 64.4115 47.28C63.5415 57.62 58.2015 66.72 50.3515 72.63C54.4615 75.73 59.2615 77.95 64.4815 79.02C70.5115 72.89 74.9615 65.21 77.1715 56.65C78.1915 52.69 78.7415 48.54 78.7415 44.26C78.7415 42.47 78.6415 40.7 78.4615 38.96H78.4715Z" fill="#4A5CFF"/>
<path d="M62.2516 31.67C60.4216 31.22 58.5516 30.88 56.6416 30.64C59.1116 31.9 60.8116 34.47 60.8116 37.43C60.8116 40.87 58.5316 43.78 55.3916 44.73C58.5516 45.18 61.5816 46.05 64.4216 47.28C64.5116 46.28 64.5516 45.27 64.5516 44.26C64.5516 39.83 63.7316 35.59 62.2416 31.67H62.2516Z" fill="#D09903"/>
<path d="M32.6515 53.81C34.8715 53.81 36.8715 54.77 38.2715 56.29C37.2415 53.44 36.5615 50.42 36.3015 47.29C31.3715 49.42 27.0215 52.64 23.5415 56.65C23.9615 58.27 24.4615 59.85 25.0315 61.4C25.0515 57.21 28.4615 53.81 32.6615 53.81H32.6515Z" fill="#D10202"/>
<path d="M64.3518 75.52C60.1418 75.52 56.7218 72.1 56.7218 67.89C56.7218 67.32 56.7918 66.77 56.9018 66.24C55.0018 68.64 52.8118 70.78 50.3618 72.62C54.4718 75.72 59.2718 77.94 64.4918 79.01C65.9818 77.49 67.3718 75.87 68.6618 74.17C67.4318 75.02 65.9418 75.51 64.3418 75.51L64.3518 75.52Z" fill="#2738D8"/>
</g>
<defs>
<clipPath id="clip0_806_771">
<rect width="500" height="93.76" fill="white" transform="translate(0.681641 0.119995)"/>
</clipPath>
</defs>
</svg>
