<svg xmlns="http://www.w3.org/2000/svg" viewBox="0 0 579.53 189.97"><defs><style>.cls-1{fill:#19325c;}</style></defs><g id="Layer_2" data-name="Layer 2"><g id="Layer_1-2" data-name="Layer 1"><path class="cls-1" d="M67.69,126.23a1,1,0,0,0-.83.52L45,171.72a.91.91,0,0,0,.05.89.9.9,0,0,0,.78.44H58.48a.93.93,0,0,0,.83-.52l21.88-45a.93.93,0,0,0,0-.9.94.94,0,0,0-.79-.44Z"/><path class="cls-1" d="M136.92,188.42l-26.64-28.9H132.5a.93.93,0,0,0,.83-.52l24.51-50.46a.93.93,0,0,0,0-.9.94.94,0,0,0-.79-.44H49.35L52,101.93h0a23.73,23.73,0,0,1,4.84-6.29,23.45,23.45,0,0,1,6.45-4.32,23.21,23.21,0,0,1,9.5-2H131a.92.92,0,0,0,.83-.52l5.51-11.29a.93.93,0,0,0,0-.9.94.94,0,0,0-.79-.44H70.87a39.21,39.21,0,0,0-17.3,5,33.35,33.35,0,0,0-9.72,8.57,28.26,28.26,0,0,0-2.51,3.9l0,0L34.76,107.2H6.36a.92.92,0,0,0-.83.54L.09,119.18a.91.91,0,0,0,.05.89.93.93,0,0,0,.79.43h27L3.28,171.72a.92.92,0,0,0,.84,1.33H16.64a.92.92,0,0,0,.83-.52l25-52h95l-12.71,26.35-26.26,0H82.15a.93.93,0,0,0-.68,1.56l38.33,41.28h0a.92.92,0,0,0,.68.3h15.76a.93.93,0,0,0,.68-1.56Z"/><path class="cls-1" d="M240,107.64a.91.91,0,0,0-.78-.44h-26l-.18,0h-.13l-.18,0H189.42a39,39,0,0,0-17.29,4.86,33.17,33.17,0,0,0-9.72,8.56,27.67,27.67,0,0,0-2.51,3.9l0,0-6.32,13.23-16.3,33.93a.92.92,0,0,0,.84,1.33h70.64a.91.91,0,0,0,.83-.52l5.37-11.11a.91.91,0,0,0-.05-.89.9.9,0,0,0-.78-.44H156.92l6.46-13.45h57.75a.94.94,0,0,0,.84-.53l15.3-31.93,2.73-5.64A.93.93,0,0,0,240,107.64Zm-26.6,26H170.13l.4-.85h0a23.22,23.22,0,0,1,4.84-6.29,23.45,23.45,0,0,1,6.45-4.32,23.16,23.16,0,0,1,9.49-2h28.47Z"/><path class="cls-1" d="M333.88,17.38a81.76,81.76,0,0,0-19.23,21.55l-3.34,5.43a.59.59,0,0,0-.07.48.6.6,0,0,0,.31.37l87.58,44.06a.52.52,0,0,0,.27.07H527.17a.59.59,0,0,0,.26-1.13L403.53,26.35a.6.6,0,0,0-.27-.06.65.65,0,0,0-.31.08.6.6,0,0,0-.28.52l.15,24-52.92-17a.81.81,0,0,0-.27,0,1.09,1.09,0,0,0-.61.2c-1.53,1.16-1.67,1.65-1.61,2a.51.51,0,0,0,.33.4l67.2,34.6a.61.61,0,0,0,.6,0,.56.56,0,0,0,.3-.52l-.14-23.69,56.55,28.23,2.48,1.35H402.32L329.64,39.87l.54-.68a69.1,69.1,0,0,1,11.66-11.65,68.84,68.84,0,0,1,73.91-7l1.1.59L552.33,89.28a.6.6,0,0,0,.27.06h26.33a.59.59,0,0,0,.24-1.14h0L422.85,9.69l-1.14-.61A81.9,81.9,0,0,0,384.25,0a80.84,80.84,0,0,0-50.37,17.38"/><path class="cls-1" d="M402.64,107.2H348.55L362.22,79a.83.83,0,0,0,.07-.13v0h0a1.26,1.26,0,0,0,.05-.28c0-.31-.17-.73-.9-1l-10.09-4.6a1.13,1.13,0,0,0-.3,0,1,1,0,0,0-.45.1h0l-.08,0-.09,0,0,0a1,1,0,0,0-.32.37l-38.47,79.58a1,1,0,0,0,.05.9.94.94,0,0,0,.79.43H325a.94.94,0,0,0,.84-.53l16.49-33.4H383l-19.19,39.63h-124l6.46-13.45h57.75a.94.94,0,0,0,.84-.53l15.3-31.93,2.73-5.64a.94.94,0,0,0-.83-1.34h-26l-.19,0h-.12l-.19,0H272.35a39,39,0,0,0-17.29,4.86,32.92,32.92,0,0,0-9.72,8.56,26.77,26.77,0,0,0-2.51,3.9l0,0-6.32,13.23-16.3,33.93a.93.93,0,0,0,.05.9.91.91,0,0,0,.78.43h151a.94.94,0,0,0,.84-.53l30.58-64a.89.89,0,0,0-.06-.89A.91.91,0,0,0,402.64,107.2ZM253.46,132.75h0a23.23,23.23,0,0,1,20.79-12.57h28.47l-6.44,13.44H253.05Z"/><path class="cls-1" d="M485.33,107.18H435.59A39,39,0,0,0,418.3,112a32.92,32.92,0,0,0-9.72,8.56,26.77,26.77,0,0,0-2.51,3.9s0,0,0,0l-6.32,13.22-16.3,33.94a.93.93,0,0,0,.05.9.91.91,0,0,0,.78.43H454.9a.93.93,0,0,0,.84-.52l5.37-11.11a.91.91,0,0,0-.05-.89.94.94,0,0,0-.79-.44H403.09l6.46-13.45H467.3a.93.93,0,0,0,.83-.53l15.31-31.92,2.73-5.66a.91.91,0,0,0-.05-.89A.93.93,0,0,0,485.33,107.18Zm-25.81,26.4H416.29l.41-.85h0a23.19,23.19,0,0,1,20.79-12.58H466Z"/><path class="cls-1" d="M568.92,107.58a.94.94,0,0,0-.79-.44h-26l-.18,0h-.13l-.18,0H518.39a39.17,39.17,0,0,0-17.3,4.85,33.35,33.35,0,0,0-9.72,8.57,28.62,28.62,0,0,0-2.51,3.9l0,0-6.32,13.22-16.3,33.94a.92.92,0,0,0,.84,1.33H537.7a.93.93,0,0,0,.84-.52l5.36-11.11a.91.91,0,0,0,0-.89.92.92,0,0,0-.78-.44H485.89l6.46-13.45h57.74a.94.94,0,0,0,.84-.53l15.3-31.93,2.73-5.65A.91.91,0,0,0,568.92,107.58Zm-26.61,26H499.09l.41-.85h0a24.27,24.27,0,0,1,11.29-10.61,23.2,23.2,0,0,1,9.49-2h28.47Z"/></g></g></svg>